<?xml version="1.0" encoding="UTF-8"?>
<svg width="46px" height="46px" viewBox="0 0 46 46" version="1.1" xmlns="http://www.w3.org/2000/svg" xmlns:xlink="http://www.w3.org/1999/xlink">
    <!-- Generator: Sketch 43.2 (39069) - http://www.bohemiancoding.com/sketch -->
    <title>THD Logo</title>
    <desc>Created with Sketch.</desc>
    <defs></defs>
    <g id="Symbols" stroke="none" stroke-width="1" fill="none" fill-rule="evenodd">
        <g id="Header/Standard-with-Sub-Menu" transform="translate(-10.000000, -12.000000)">
            <g id="Global-Product-Action-Links" fill="#2B3134">
                <rect id="Header-Background" x="0" y="0" width="1280" height="70"></rect>
            </g>
            <g id="THD-Logo" transform="translate(10.000000, 12.000000)">
                <rect id="Logo-Background" fill="#FFFFFF" x="0" y="0" width="46" height="46" rx="1"></rect>
                <path d="M42.0430108,43.2053763 C42.5870968,43.2053763 43.0075269,42.7849462 43.0075269,42.216129 C43.0075269,41.6473118 42.5870968,41.2268817 42.0430108,41.2268817 C41.4989247,41.2268817 41.0784946,41.6473118 41.0784946,42.216129 C41.0784946,42.7849462 41.4989247,43.2053763 42.0430108,43.2053763 L42.0430108,43.2053763 Z M42.1172043,41.5483871 C42.4387097,41.5483871 42.611828,41.6473118 42.611828,41.9193548 C42.611828,42.1666667 42.4634409,42.216129 42.2655914,42.2408602 L42.6612903,42.7849462 L42.4387097,42.7849462 L42.0677419,42.2903226 L41.8204301,42.2903226 L41.8204301,42.7849462 L41.6225806,42.7849462 L41.6225806,41.5483871 L42.1172043,41.5483871 L42.1172043,41.5483871 Z" id="Fill-1" fill="#F4811F"></path>
                <path d="M42.0430108,42.0761219 C42.216129,42.0761219 42.3892473,42.1599929 42.3892473,41.936337 C42.3892473,41.7406381 42.2408602,41.796552 42.0924731,41.796552 L41.7956989,41.796552 L41.7956989,42.0761219 L42.0430108,42.0761219" id="Fill-2" fill="#F4811F"></path>
                <path d="M42.8096774,7.54230406 L44.2935484,8.97671267 L44.2935484,1.73047611 L36.7752688,1.73047611 L38.3333333,3.28854062 C38.4075269,3.36273417 38.6301075,3.610046 38.2344086,3.98101374 C38.011828,4.20359439 37.8387097,4.12940084 37.5913978,4.00574492 C36.255914,3.31327181 34.9946237,3.33800299 33.7086022,4.25305675 L32.9913978,3.53585245 L34.7967742,1.73047611 L1.78064516,1.73047611 L1.78064516,34.8702611 L4.7483871,31.8530568 C4.79784946,31.8035944 5.21827957,31.4078955 5.56451613,31.7788632 C5.73763441,31.9519815 5.73763441,32.1745621 5.61397849,32.3971428 C5.3172043,32.96596 5.39139785,33.0401535 5.86129032,33.510046 L12.4397849,40.0885406 C12.9096774,40.5584331 12.9591398,40.6326266 13.5526882,40.3358525 C13.7752688,40.2121965 13.9978495,40.2121965 14.1709677,40.410046 C14.5419355,40.7810137 14.1462366,41.2014438 14.0967742,41.2509062 L11.0548387,44.2681105 L23.1483871,44.2681105 C23.1731183,44.2681105 23.1978495,44.1691858 23.2225806,44.1197234 C23.3215054,43.9466051 23.0989247,43.7734869 23,43.6745621 L19.2903226,39.9648847 C19.1913978,39.86596 19.0182796,39.6433793 18.8204301,39.7423041 C18.6225806,39.8412288 18.4741935,39.9401535 18.3010753,39.7670352 C18.127957,39.593917 18.2763441,39.3960675 18.4247312,39.2476804 L20.2301075,37.4423041 L25.5225806,42.710046 L23.9892473,44.2681105 L44.3182796,44.2681105 L44.3182796,24.038003 L42.5870968,25.7197234 C42.5623656,25.7444546 42.2903226,25.9670352 42.0924731,25.7691858 C41.9935484,25.6702611 41.9935484,25.5466051 42.0430108,25.4229492 C42.216129,25.1014438 42.1666667,25.0519815 41.8946237,24.8046697 L37.3935484,20.3035944 L39.1247312,18.5724116 L43.6505376,23.0734869 C43.9225806,23.3455299 43.8236559,23.3949922 44.3182796,23.221874 L44.3182796,11.1283256 L42.4634409,12.9337019 L41.7215054,12.2164976 C42.611828,11.0788632 42.6860215,9.59499224 42.0182796,8.25950836 C41.9193548,7.98746535 41.8204301,7.71542234 42.0430108,7.4928417 C42.4139785,7.07241159 42.7602151,7.4928417 42.8096774,7.54230406 L42.8096774,7.54230406 Z M36.9483871,4.94552987 C37.344086,4.54983095 37.7397849,5.06918578 37.8387097,5.16811052 L40.5591398,7.88854062 C40.6580645,7.98746535 41.1774194,8.38316428 40.7817204,8.7788632 C40.5096774,9.05090621 40.2376344,8.90251912 39.9655914,8.75413202 C39.372043,8.38316428 38.6548387,8.13585245 37.9870968,8.53155138 L37.2204301,7.76488471 C37.616129,7.09714277 37.344086,6.37993847 36.9978495,5.78639009 C36.8247312,5.46488471 36.7010753,5.1928417 36.9483871,4.94552987 L36.9483871,4.94552987 Z M27.7483871,8.80359439 C27.7978495,8.75413202 28.2430108,8.3584331 28.5892473,8.72940084 C28.7623656,8.90251912 28.7623656,9.12509976 28.6634409,9.34768041 C28.3666667,9.91649761 28.4408602,9.99069116 28.9107527,10.4605836 L35.4892473,17.0390783 C35.9591398,17.5089707 36.0086022,17.5831643 36.6021505,17.2863901 C36.8247312,17.1627342 37.0473118,17.1627342 37.2204301,17.3605836 C37.5913978,17.7315514 37.1956989,18.1519815 37.1462366,18.2014438 L33.5849462,21.738003 C33.5354839,21.7874654 33.0903226,22.1831643 32.744086,21.8121965 C32.5709677,21.6390783 32.5709677,21.4164976 32.6698925,21.193917 C32.9666667,20.6250998 32.8924731,20.5509062 32.4225806,20.0810137 L26.5860215,14.2444546 L31.6806452,23.6423041 L31.3096774,24.0132718 L20.9225806,18.8691858 C20.6752688,18.7455299 20.427957,18.621874 20.155914,18.5476804 C19.8591398,18.4734869 19.6612903,18.3745621 19.4387097,18.5724116 C19.2655914,18.7207987 18.9193548,19.0175729 18.6225806,18.7207987 C18.2268817,18.3250998 18.6225806,17.954132 18.7709677,17.8057449 L21.9612903,14.6154223 L27.1548387,17.138003 L27.1795699,17.1132718 L24.4344086,12.1175729 L27.7483871,8.80359439 L27.7483871,8.80359439 Z M27.6247312,33.5595084 C27.5505376,33.4111213 27.4763441,33.238003 27.6247312,33.0896159 C27.8473118,32.8670352 28.0698925,33.1638094 28.1193548,33.2132718 L29.6526882,34.7466051 C29.7021505,34.7960675 29.9989247,35.0186481 29.7763441,35.2412288 C29.627957,35.3896159 29.4795699,35.3154223 29.3064516,35.2412288 C28.9849462,35.0433793 28.5645161,34.8949922 28.1935484,35.1175729 L27.7483871,34.6724116 C27.9709677,34.3014438 27.8225806,33.8810137 27.6247312,33.5595084 L27.6247312,33.5595084 Z M28.3419355,32.5455299 C28.2182796,32.6691858 28.1193548,32.6197234 27.9709677,32.5702611 C27.2043011,32.1745621 26.511828,32.1992933 25.7946237,32.7186481 L25.3741935,32.298218 L26.9569892,30.7154223 L28.3913978,32.1498309 C28.416129,32.1992933 28.5645161,32.3476804 28.3419355,32.5455299 L28.3419355,32.5455299 Z M23.0989247,29.3552073 L16.5946237,22.8509062 C16.2731183,22.5294008 15.8526882,22.2078955 15.0612903,22.5788632 L14.344086,21.8616589 C17.2376344,19.438003 20.6258065,20.3530568 23.1236559,22.8509062 C25.6215054,25.3487557 26.5365591,28.7369277 24.1129032,31.6304761 L23.3956989,30.9132718 C23.7419355,30.0971428 23.3956989,29.6519815 23.0989247,29.3552073 L23.0989247,29.3552073 Z M26.6602151,24.7057449 L22.4311828,20.4767127 L22.455914,20.4519815 L25.2258065,21.8121965 L27.3774194,23.9638094 C29.1580645,25.3240245 29.4548387,24.038003 29.9989247,24.582089 C30.3946237,24.9777879 29.8505376,25.4476804 29.7021505,25.5960675 L28.2677419,27.0304761 C28.1193548,27.1788632 27.6494624,27.698218 27.2537634,27.3272503 C26.7344086,26.7831643 28.0204301,26.4616589 26.6602151,24.7057449 L26.6602151,24.7057449 Z M21.8870968,9.9412288 C21.8376344,9.7928417 21.7634409,9.6444546 21.8870968,9.52079869 C22.1096774,9.29821804 22.2827957,9.52079869 22.3075269,9.54552987 L23.6430108,10.8810137 L22.1096774,12.4143471 L21.7139785,12.0186481 C22.2086022,11.4250998 22.2580645,10.6584331 21.8870968,9.9412288 L21.8870968,9.9412288 Z M21.2688172,10.2132718 C21.1204301,10.3616589 20.972043,10.2874654 20.8483871,10.2132718 C20.5268817,10.0154223 20.155914,9.89176643 19.8096774,10.0896159 L19.3892473,9.66918578 C19.5870968,9.32294923 19.4634409,8.9272503 19.2655914,8.63047611 C19.1913978,8.48208901 19.1172043,8.33370191 19.2655914,8.210046 C19.4634409,8.01219654 19.6860215,8.28423955 19.7354839,8.33370191 L21.1698925,9.76811052 C21.1946237,9.7928417 21.4666667,9.99069116 21.2688172,10.2132718 L21.2688172,10.2132718 Z M18.6225806,5.95950836 L19.9580645,7.29499224 C19.9827957,7.31972342 20.1064516,7.46811052 19.9086022,7.66595998 C19.7849462,7.78961589 19.6860215,7.74015353 19.5623656,7.69069116 C18.8451613,7.31972342 18.1774194,7.3444546 17.5096774,7.83907826 L17.1139785,7.44337933 L18.6225806,5.95950836 L18.6225806,5.95950836 Z M15.1107527,9.4960675 L16.8666667,7.74015353 L21.8376344,12.7111213 L20.0817204,14.4670352 C20.0569892,14.4917664 19.8344086,14.6896159 19.6365591,14.5164976 C19.5376344,14.4175729 19.5376344,14.293917 19.611828,14.1949922 C19.7602151,13.898218 19.7354839,13.8487557 19.488172,13.6014438 L15.9763441,10.1143471 C15.7290323,9.86703525 15.7043011,9.81757288 15.3827957,9.99069116 C15.2591398,10.0401535 15.1602151,10.0401535 15.0612903,9.96595998 C14.8634409,9.76811052 15.0612903,9.52079869 15.1107527,9.4960675 L15.1107527,9.4960675 Z M12.588172,11.993917 L14.4677419,10.1143471 C14.4924731,10.0896159 14.7150538,9.89176643 14.9129032,10.0648847 C15.011828,10.1638094 15.011828,10.2874654 14.9376344,10.3863901 C14.7892473,10.6831643 14.8139785,10.7326266 15.0612903,10.9799385 L18.5483871,14.4670352 C18.7956989,14.7143471 18.8204301,14.7638094 19.1419355,14.5906912 C19.2655914,14.5412288 19.3645161,14.5412288 19.4634409,14.6154223 C19.6612903,14.8132718 19.4387097,15.0358525 19.4139785,15.0605836 L17.5591398,16.9648847 C17.5344086,16.9896159 17.311828,17.1874654 17.1139785,17.0143471 C17.0150538,16.9154223 17.0150538,16.7917664 17.0892473,16.6928417 C17.2376344,16.3960675 17.2129032,16.3466051 16.9655914,16.0992933 L15.3827957,14.5164976 L14.7645161,15.0853148 L14.3688172,14.6896159 L14.9623656,14.0960675 L13.4537634,12.6121965 C13.2064516,12.3648847 13.1817204,12.3154223 12.8602151,12.4885406 C12.7365591,12.538003 12.6376344,12.538003 12.5387097,12.4638094 C12.3655914,12.26596 12.5634409,12.0186481 12.588172,11.993917 L12.588172,11.993917 Z M10.0903226,14.5164976 L11.9698925,12.6369277 C11.9946237,12.6121965 12.2172043,12.4143471 12.4150538,12.5874654 C12.5139785,12.6863901 12.5139785,12.810046 12.4397849,12.9089707 C12.2913978,13.2057449 12.316129,13.2552073 12.5634409,13.5025191 L16.0505376,16.9896159 C16.2978495,17.2369277 16.3225806,17.2863901 16.644086,17.1132718 C16.7677419,17.0638094 16.8666667,17.0638094 16.9655914,17.138003 C17.1634409,17.3358525 16.9408602,17.5584331 16.916129,17.5831643 L15.0365591,19.4627342 C15.011828,19.4874654 14.7892473,19.6853148 14.5913978,19.5121965 C14.4924731,19.4132718 14.4924731,19.2896159 14.5666667,19.1906912 C14.7150538,18.893917 14.6903226,18.8444546 14.4430108,18.5971428 L10.955914,15.1347772 C10.7086022,14.8874654 10.683871,14.838003 10.3623656,15.0111213 C10.2387097,15.0605836 10.1397849,15.0605836 10.0408602,14.9863901 C9.84301075,14.7638094 10.0655914,14.5412288 10.0903226,14.5164976 L10.0903226,14.5164976 Z M9.64516129,14.9616589 L11.2032258,16.5197234 C11.227957,16.5444546 11.3763441,16.7423041 11.1784946,16.9401535 C10.9806452,17.138003 10.7827957,16.9896159 10.6096774,16.86596 C10.1892473,16.5691858 9.66989247,16.2229492 9.07634409,16.321874 L8.68064516,15.926175 L9.64516129,14.9616589 L9.64516129,14.9616589 Z M8.38387097,16.2229492 L12.6129032,20.4272503 C12.8602151,20.6745621 12.8849462,20.7240245 13.2064516,20.5509062 C13.3301075,20.5014438 13.4290323,20.5014438 13.527957,20.5756374 C13.7258065,20.7734869 13.5032258,20.9960675 13.4784946,21.0207987 L11.5989247,22.9003686 C11.5741935,22.9250998 11.3516129,23.1229492 11.1537634,22.9498309 C11.0548387,22.8509062 11.0548387,22.7272503 11.1290323,22.6283256 C11.2774194,22.3315514 11.2526882,22.282089 11.0053763,22.0347772 L6.7516129,17.8304761 L8.38387097,16.2229492 L8.38387097,16.2229492 Z M5.51505376,19.0917664 L6.47956989,18.1272503 L6.87526882,18.5229492 C6.77634409,19.1164976 7.12258065,19.6358525 7.41935484,20.0562826 C7.54301075,20.2294008 7.69139785,20.4272503 7.49354839,20.6250998 C7.29569892,20.8229492 7.09784946,20.6745621 7.07311828,20.6498309 L5.51505376,19.0917664 L5.51505376,19.0917664 Z M18.8204301,36.5025191 L15.283871,40.0638094 C15.2344086,40.1132718 14.7892473,40.5089707 14.4182796,40.138003 C14.2451613,39.9648847 14.2451613,39.7423041 14.344086,39.5197234 C14.6408602,38.9509062 14.5666667,38.8767127 14.0967742,38.4068202 L11.1043011,35.4143471 L9.99139785,36.5272503 L9.27419355,35.810046 L10.3870968,34.6971428 L7.54301075,31.8530568 C7.07311828,31.3831643 7.02365591,31.3089707 6.43010753,31.6057449 C6.20752688,31.7294008 5.98494624,31.7294008 5.81182796,31.5315514 C5.44086022,31.1605836 5.83655914,30.7401535 5.88602151,30.6906912 L9.42258065,27.154132 C9.47204301,27.1046697 9.9172043,26.7089707 10.2634409,27.0799385 C10.4365591,27.2530568 10.4365591,27.4756374 10.3376344,27.698218 C10.0408602,28.2670352 10.1150538,28.3412288 10.5849462,28.8111213 L17.1634409,35.3896159 C17.6333333,35.8595084 17.6827957,35.9337019 18.2763441,35.6369277 C18.4989247,35.5132718 18.7215054,35.538003 18.8946237,35.7111213 C19.2655914,36.0326266 18.8698925,36.4530568 18.8204301,36.5025191 L18.8204301,36.5025191 Z M14.7397849,31.210046 C12.2419355,28.7121965 11.3268817,25.3240245 13.7505376,22.4304761 L14.4677419,23.1476804 C14.0967742,23.9390783 14.4182796,24.3842395 14.7397849,24.6810137 L21.244086,31.1853148 C21.5655914,31.5068202 21.9860215,31.8283256 22.7774194,31.4573578 L23.4946237,32.1745621 C20.6258065,34.598218 17.2376344,33.7078955 14.7397849,31.210046 L14.7397849,31.210046 Z M25.844086,42.4132718 L25.4236559,41.9928417 C25.7946237,41.498218 25.4236559,41.0777879 25.1516129,40.8057449 L22.1344086,37.7885406 C21.8623656,37.5164976 21.4419355,37.1455299 20.9473118,37.5164976 L20.5268817,37.0960675 C21.7139785,35.8842395 23.544086,35.7111213 25.4483871,37.4423041 C27.2290323,39.0498309 27.0311828,41.226175 25.844086,42.4132718 L25.844086,42.4132718 Z M28.4903226,39.7670352 C28.4655914,39.7917664 28.2182796,40.0143471 28.0204301,39.8164976 C27.9215054,39.7175729 27.9215054,39.593917 27.9956989,39.4702611 C28.1688172,39.1487557 28.1193548,39.0992933 27.8473118,38.8519815 L24.1376344,35.1423041 C23.8655914,34.8702611 23.8408602,34.8207987 23.5193548,34.993917 C23.3956989,35.0681105 23.272043,35.0681105 23.1731183,34.9691858 C22.9752688,34.7713363 23.1978495,34.5240245 23.2225806,34.4992933 L25.0774194,32.6444546 L30.3698925,37.9369277 L28.4903226,39.7670352 L28.4903226,39.7670352 Z M30.6666667,37.5906912 L30.2462366,37.1702611 C30.7408602,36.5272503 30.7903226,35.7111213 30.4193548,34.9444546 C30.3698925,34.7960675 30.2956989,34.6229492 30.4193548,34.4992933 C30.6419355,34.2767127 30.8397849,34.4992933 30.8645161,34.5240245 L32.2741935,35.9337019 L30.6666667,37.5906912 L30.6666667,37.5906912 Z M34.7967742,33.4853148 L32.7935484,35.4885406 C32.7688172,35.5132718 32.5709677,35.6863901 32.3731183,35.4885406 C32.2741935,35.3896159 32.2494624,35.26596 32.3236559,35.1670352 C32.4967742,34.8455299 32.3978495,34.8455299 32.1505376,34.5734869 L28.4408602,30.8638094 C28.1688172,30.5917664 28.144086,30.5423041 27.8225806,30.7154223 C27.6989247,30.7896159 27.5752688,30.7896159 27.4763441,30.6906912 C27.2784946,30.4928417 27.5010753,30.2455299 27.5258065,30.2207987 L29.3806452,28.36596 L33.8817204,32.8670352 C34.1537634,33.1390783 34.1784946,33.1885406 34.5,33.0154223 C34.6236559,32.9412288 34.7473118,32.9412288 34.8462366,33.0401535 C35.044086,33.1885406 34.8215054,33.4358525 34.7967742,33.4853148 L34.7967742,33.4853148 Z M34.3021505,28.6627342 C34.2032258,28.5638094 34.1043011,28.4648847 34.0301075,28.36596 C34.1784946,28.7369277 34.2032258,29.1326266 34.0795699,29.6025191 C33.9311828,30.121874 33.6096774,30.5917664 32.9419355,31.2595084 L32.5215054,30.8390783 C32.8677419,30.3444546 32.5956989,30.0229492 32.2494624,29.6767127 L31.1860215,28.6132718 C30.8645161,28.2917664 30.5182796,28.0691858 30.0731183,28.3906912 L29.6526882,27.9702611 C30.3204301,27.3025191 30.7903226,26.9810137 31.3096774,26.8326266 C32.1258065,26.6347772 32.7688172,26.882089 33.3623656,27.426175 C32.7193548,26.2390783 32.7193548,24.8788632 33.7086022,23.6917664 L34.1290323,24.1121965 C33.9064516,24.5573578 34.1043011,24.8046697 34.2774194,24.9777879 L37.9376344,28.638003 C38.1107527,28.8111213 38.3580645,29.0089707 38.8032258,28.7863901 L39.2236559,29.2068202 C37.616129,30.5917664 35.711828,30.0724116 34.3021505,28.6627342 L34.3021505,28.6627342 Z M42.0430108,41.0035944 C42.6860215,41.0035944 43.2548387,41.498218 43.2548387,42.1906912 C43.2548387,42.8831643 42.6860215,43.3777879 42.0430108,43.3777879 C41.3752688,43.3777879 40.8311828,42.8831643 40.8311828,42.1906912 C40.8311828,41.498218 41.4,41.0035944 42.0430108,41.0035944 L42.0430108,41.0035944 Z M37.4677419,21.0455299 C37.3688172,21.6638094 37.7397849,22.2326266 38.0365591,22.6777879 C38.1602151,22.8509062 38.3086022,23.0487557 38.1354839,23.2466051 C38.4322581,23.4444546 38.7290323,23.6917664 39.0010753,23.9638094 C40.4107527,25.3734869 40.9053763,27.2777879 39.5451613,28.910046 L39.1247312,28.4896159 C39.3473118,28.0444546 39.1494624,27.7971428 38.9763441,27.6240245 L35.316129,23.9638094 C35.1430108,23.7906912 34.8956989,23.5928417 34.4505376,23.8154223 L34.0301075,23.3949922 C35.0193548,22.5788632 36.1075269,22.4304761 37.1215054,22.7519815 L36.0086022,21.6390783 L37.0225806,20.6250998 L37.4677419,21.0455299 L37.4677419,21.0455299 Z M42.0430108,19.3390783 C41.8451613,19.5369277 41.6225806,19.3885406 41.4494624,19.2648847 C41.0043011,18.9433793 40.4354839,18.5971428 39.8172043,18.6960675 L39.3967742,18.2756374 L40.4107527,17.2616589 L42.0677419,18.9186481 C42.1172043,18.9433793 42.2655914,19.1412288 42.0430108,19.3390783 L42.0430108,19.3390783 Z M41.8204301,13.5025191 L38.5311828,16.8164976 C38.4817204,16.86596 38.0365591,17.2616589 37.6655914,16.8906912 C37.4924731,16.7175729 37.4924731,16.4949922 37.5913978,16.2724116 C37.888172,15.7035944 37.8139785,15.6294008 37.344086,15.1595084 L30.7655914,8.58101374 C30.2956989,8.11112127 30.2462366,8.03692772 29.6526882,8.33370191 C29.4301075,8.45735783 29.2075269,8.45735783 29.0344086,8.25950836 C28.6634409,7.88854062 29.0591398,7.46811052 29.1086022,7.41864815 L32.4225806,4.10466966 L41.8204301,13.5025191 L41.8204301,13.5025191 Z" id="Fill-3" fill="#F96302"></path>
                <path d="M9.37311828,43.155914 L2.76989247,36.5774194 C2.3,36.1075269 2.3,36.0333333 1.7311828,36.3301075 L1.78064516,36.3301075 L1.78064516,44.2688172 L9.62043011,44.2688172 C9.62043011,44.2688172 9.62043011,44.2688172 9.62043011,44.244086 C9.9172043,43.6752688 9.81827957,43.6258065 9.37311828,43.155914" id="Fill-4" fill="#F4811F"></path>
            </g>
        </g>
    </g>
</svg>